<?xml version="1.0" standalone="no"?>
<!DOCTYPE svg PUBLIC "-//W3C//DTD SVG 20010904//EN"
 "http://www.w3.org/TR/2001/REC-SVG-20010904/DTD/svg10.dtd">
<svg version="1.0" xmlns="http://www.w3.org/2000/svg"
 width="928.000000pt" height="928.000000pt" viewBox="0 0 928.000000 928.000000"
 preserveAspectRatio="xMidYMid meet">
<metadata>
Created by potrace 1.11, written by Peter Selinger 2001-2013
</metadata>
<g transform="translate(0.000000,928.000000) scale(0.100000,-0.100000)"
fill="#000000" stroke="none">
<path d="M1729 7336 c-2 -2 -24 -6 -49 -10 -60 -7 -97 -15 -145 -28 -22 -7
-42 -12 -45 -13 -75 -16 -253 -98 -365 -167 -434 -269 -820 -834 -989 -1448
-15 -52 -31 -111 -36 -130 -6 -19 -12 -46 -14 -60 -3 -14 -11 -56 -20 -95 -8
-38 -17 -90 -20 -115 -3 -25 -8 -56 -10 -70 -34 -182 -41 -731 -12 -873 3 -12
7 -42 10 -67 7 -72 29 -200 47 -280 6 -25 13 -56 15 -70 3 -14 10 -43 16 -65
6 -22 13 -44 14 -50 80 -306 221 -624 391 -884 118 -181 179 -254 378 -455
132 -133 188 -181 308 -264 201 -137 419 -221 651 -248 73 -8 2484 -9 2492 -1
5 5 9 5087 5 5260 -1 29 -2 29 -56 25 l-54 -3 0 45 c1 25 1 51 0 58 -1 10
-255 12 -1254 12 -690 0 -1256 -2 -1258 -4z m1464 -1515 c5 -1 -32 -43 -81
-93 -102 -106 -131 -137 -299 -316 -68 -71 -155 -162 -193 -203 -64 -67 -263
-277 -349 -368 -18 -20 -54 -57 -78 -82 -37 -39 -42 -48 -31 -60 7 -8 51 -57
98 -109 47 -52 89 -100 95 -106 41 -45 169 -187 201 -224 21 -24 48 -54 59
-66 20 -20 142 -157 178 -198 10 -11 51 -57 92 -101 231 -253 413 -460 410
-465 -2 -3 -248 -5 -547 -5 l-543 0 -41 45 c-22 25 -105 117 -184 205 -79 88
-167 185 -194 215 -28 30 -85 93 -126 139 -41 46 -86 96 -100 111 -27 30 -141
157 -170 190 -10 11 -51 57 -92 103 -41 45 -92 101 -113 125 l-38 43 45 47
c25 26 66 68 89 93 24 26 109 115 189 199 80 84 162 171 183 194 22 22 98 103
170 179 198 208 229 241 356 376 64 67 124 126 133 130 12 4 811 6 881 2z"/>
<path d="M4929 7318 c-1 -29 0 -5214 0 -5245 1 -21 6 -23 55 -23 l54 0 -1 -50
c0 -27 2 -53 6 -56 9 -9 2392 -9 2492 1 422 38 852 319 1167 760 134 188 256
416 338 630 23 61 46 119 50 130 31 74 110 380 126 480 1 11 8 45 14 75 6 30
13 78 16 105 3 28 7 61 9 75 26 155 26 643 0 820 -2 14 -6 48 -10 75 -3 28 -8
57 -10 65 -2 8 -6 33 -10 55 -10 69 -43 217 -64 290 -54 190 -67 229 -116 350
-166 415 -372 715 -710 1035 -233 221 -478 357 -765 426 -70 17 -167 18 -1357
21 l-1283 4 -1 -23z m2204 -1549 c27 -30 116 -123 196 -208 80 -85 160 -168
176 -186 17 -17 72 -76 124 -131 52 -54 135 -142 185 -194 49 -52 128 -136
175 -185 47 -50 99 -105 115 -123 l29 -31 -79 -88 c-43 -48 -93 -104 -111
-123 -17 -19 -41 -45 -51 -58 -16 -18 -87 -97 -197 -218 -37 -41 -80 -89 -169
-189 -49 -55 -94 -104 -100 -110 -6 -5 -45 -48 -86 -95 -41 -47 -94 -105 -116
-130 -23 -25 -89 -97 -146 -160 l-105 -115 -446 0 c-246 0 -446 3 -445 6 2 4
39 46 83 95 89 97 91 100 190 210 39 43 81 89 93 103 13 14 47 53 75 85 29 33
66 73 82 91 17 17 64 69 105 115 41 47 98 110 126 140 28 30 69 75 90 100 21
25 44 50 50 55 6 6 44 47 84 93 l74 83 -60 62 c-62 64 -187 196 -245 258 -19
20 -72 76 -119 125 -47 49 -159 168 -250 264 -91 96 -204 215 -251 265 -211
221 -228 240 -214 245 8 3 256 4 551 4 l537 -2 50 -53z"/>
</g>
</svg>
